# xmcd
#
# Track frame offsets: 
#        150
#        16418
#        32221
#        52936
#        74429
#        90764
#        109360
#        144145
#        169926
#        182356
#        201804
#        216855
#
# Disc length: 3178 seconds
#
# Revision: 0
# Processed by: cddbd v1.5.1PL0 Copyright (c) Steve Scherf et al.
# Submitted via: ExactAudioCopy v0.95a4
#
DISCID=9d0c680c
DTITLE=Das Dritte Ohr - Zahltag
DYEAR=1900
DGENRE=Blues
TTITLE0=Zahltag
TTITLE1=Wenn die Sonne sinkt
TTITLE2=Rita Rita
TTITLE3=Mordwest-Stadt
TTITLE4=Maibock
TTITLE5=Kalte Wut
TTITLE6=Bleib weg
TTITLE7=Schwarzer Wurm
TTITLE8=Disco Fuzzies
TTITLE9=Startin' Traveller
TTITLE10=Sippin Time
TTITLE11=YO-YO Woman
EXTD=
EXTT0=
EXTT1=
EXTT2=
EXTT3=
EXTT4=
EXTT5=
EXTT6=
EXTT7=
EXTT8=
EXTT9=
EXTT10=
EXTT11=
PLAYORDER=
